HIERARCHY
ROOT Hips
{
 OFFSET 0.000000 0.000000 0.000000
 CHANNELS 6 Xposition Yposition Zposition Yrotation Xrotation Zrotation
 JOINT Chest
 {
  OFFSET 0.000000 9.585900 0.002600
  CHANNELS 3 Yrotation Xrotation Zrotation
  JOINT Chest2
  {
   OFFSET 0.000000 9.601200 -0.005300
   CHANNELS 3 Yrotation Xrotation Zrotation
   JOINT Chest3
   {
    OFFSET 0.000000 9.561800 0.000000
    CHANNELS 3 Yrotation Xrotation Zrotation
    JOINT Chest4
    {
     OFFSET 0.000000 9.552100 0.000000
     CHANNELS 3 Yrotation Xrotation Zrotation
     JOINT Neck
     {
      OFFSET 0.000000 14.453000 0.000000
      CHANNELS 3 Yrotation Xrotation Zrotation
      JOINT Head
      {
       OFFSET 0.000000 8.936500 -0.011300
       CHANNELS 3 Yrotation Xrotation Zrotation
       End Site
       {
        OFFSET 0.000000 17.073600 -0.006000
       }
      }
     }
     JOINT RightCollar
     {
      OFFSET -2.921100 9.558500 0.000000
      CHANNELS 3 Yrotation Xrotation Zrotation
      JOINT RightShoulder
      {
       OFFSET -13.519700 0.000000 0.000000
       CHANNELS 3 Yrotation Xrotation Zrotation
       JOINT RightElbow
       {
        OFFSET 0.000000 -29.696600 0.000000
        CHANNELS 3 Yrotation Xrotation Zrotation
        JOINT RightWrist
        {
         OFFSET 0.000000 -24.004700 0.000000
         CHANNELS 3 Yrotation Xrotation Zrotation
         End Site
         {
          OFFSET 0.000000 -17.728500 0.000000
         }
        }
       }
      }
     }
     JOINT LeftCollar
     {
      OFFSET 2.921100 9.558500 0.000000
      CHANNELS 3 Yrotation Xrotation Zrotation
      JOINT LeftShoulder
      {
       OFFSET 13.519700 0.000000 0.000000
       CHANNELS 3 Yrotation Xrotation Zrotation
       JOINT LeftElbow
       {
        OFFSET 0.000000 -29.696600 0.000000
        CHANNELS 3 Yrotation Xrotation Zrotation
        JOINT LeftWrist
        {
         OFFSET 0.000000 -24.004700 0.000000
         CHANNELS 3 Yrotation Xrotation Zrotation
         End Site
         {
          OFFSET 0.000000 -17.728500 0.000000
         }
        }
       }
      }
     }
    }
   }
  }
 }
 JOINT RightHip
 {
  OFFSET -7.771700 -0.012900 -0.001300
  CHANNELS 3 Yrotation Xrotation Zrotation
  JOINT RightKnee
  {
   OFFSET 0.000000 -40.869800 0.001200
   CHANNELS 3 Yrotation Xrotation Zrotation
   JOINT RightAnkle
   {
    OFFSET 0.000000 -39.717900 0.002100
    CHANNELS 3 Yrotation Xrotation Zrotation
    JOINT RightToe
    {
     OFFSET 0.000000 -4.965400 11.033500
     CHANNELS 3 Yrotation Xrotation Zrotation
     End Site
     {
      OFFSET 0.000000 -1.423100 5.872300
     }
    }
   }
  }
 }
 JOINT LeftHip
 {
  OFFSET 7.771700 -0.012900 -0.001300
  CHANNELS 3 Yrotation Xrotation Zrotation
  JOINT LeftKnee
  {
   OFFSET 0.000000 -40.869800 0.001200
   CHANNELS 3 Yrotation Xrotation Zrotation
   JOINT LeftAnkle
   {
    OFFSET 0.000000 -39.717900 0.002100
    CHANNELS 3 Yrotation Xrotation Zrotation
    JOINT LeftToe
    {
     OFFSET 0.000000 -4.965400 11.033500
     CHANNELS 3 Yrotation Xrotation Zrotation
     End Site
     {
      OFFSET 0.000000 -1.423100 5.872300
     }
    }
   }
  }
 }
}
MOTION
Frames: 7
Frame Time: 0.008333
0.000000 85.388000 0.000000 0.000000 -5.767877 0.000000 0.000000 11.653817 0.000000 0.000000 -5.885947 0.000000 0.000000 -0.000000 0.000000 0.000000 -0.000000 0.000000 0.000000 12.528835 0.000000 0.000000 0.711642 0.000000 0.000000 -0.000000 0.000000 0.000000 0.000000 -90.000000 0.000000 -2.309062 0.000000 0.000000 2.309062 0.000000 0.000000 -0.000000 0.000000 0.000000 -0.000000 90.000000 0.000000 -2.309062 0.000000 0.000000 2.309062 0.000000 0.000000 8.520406 0.000000 0.000000 1.905762 0.000000 -0.000000 -4.658285 0.000000 0.000000 -0.000000 0.000000 0.000000 8.520406 0.000000 0.000000 1.905762 0.000000 -0.000000 -4.658285 0.000000 0.000000 -0.000000 0.000000
-32.280470 58.171215 92.091698 -177.464993 -41.403043 -3.264885 -1.928177 25.304304 2.275447 -0.337039 4.113327 0.337545 -0.527292 6.566014 0.528156 -1.533302 20.940550 1.510014 0.675193 13.904867 -2.007622 2.033221 -10.033544 -4.056073 5.342890 -2.133248 -2.214064 27.999911 -39.614566 -22.564098 46.023347 -28.419594 -6.210183 11.410830 9.637434 -40.274701 -10.898315 -8.459660 -4.486229 -15.938327 -40.467202 0.901411 -50.340960 -16.552213 17.980138 -28.797548 4.222807 24.095521 4.519386 -29.372671 -2.457772 8.702730 77.958390 12.685307 3.481197 -5.888729 0.523391 0.046444 0.365151 0.035188 -9.343471 -32.772629 -6.954249 43.723190 78.317034 39.009354 -21.809831 -9.913016 1.193079 -0.515688 -0.699652 -0.211565
-32.279739 58.176068 92.083513 -177.452639 -41.315659 -3.268527 -1.919863 25.317001 2.292099 -0.341150 4.091733 0.338426 -0.520361 6.595725 0.533093 -1.540542 20.892771 1.515825 0.668541 13.890544 -2.023568 2.036336 -10.031917 -4.110812 5.328287 -2.092501 -2.208792 27.580711 -39.535191 -22.277537 46.167717 -28.686512 -6.562828 11.451573 9.615961 -40.284152 -10.897070 -8.498311 -4.481354 -15.822832 -40.391861 0.839265 -50.316415 -16.657129 17.987358 -28.794349 4.222567 24.205863 4.411690 -29.452300 -2.428047 8.703523 77.963514 12.618519 3.502635 -5.896754 0.509498 0.043125 0.370330 0.028109 -9.289368 -32.840604 -6.969849 43.646387 78.315292 38.979270 -21.831089 -9.919469 1.194704 -0.509358 -0.697915 -0.202470
-32.277840 58.183030 92.071743 -177.453755 -41.222950 -3.267443 -1.897841 25.321950 2.311023 -0.355518 4.019527 0.336446 -0.501691 6.672497 0.539174 -1.507457 20.982857 1.543664 0.626033 13.742109 -2.044095 2.045245 -10.031141 -4.160028 5.296062 -2.184640 -2.215146 27.221408 -39.471364 -22.032407 46.335863 -28.885822 -6.891332 11.482707 9.619609 -40.280034 -10.902661 -8.606767 -4.459175 -15.835252 -40.424878 0.835995 -50.285079 -16.704417 17.979058 -28.813135 4.224707 24.261312 4.385903 -29.536347 -2.427481 8.733059 77.967133 12.642102 3.505665 -5.896754 0.493465 0.046117 0.360098 0.026899 -9.238545 -32.912847 -6.969278 43.630262 78.314703 38.991720 -21.865557 -9.923919 1.214456 -0.509355 -0.702091 -0.201206
-32.274687 58.191512 92.056794 -177.445781 -41.122986 -3.276995 -1.879677 25.319275 2.333461 -0.337722 4.093869 0.343158 -0.513246 6.597886 0.539274 -1.485156 21.009582 1.559655 0.626474 13.758067 -2.075598 2.016872 -10.138877 -4.177193 5.282654 -2.210868 -2.202982 26.938253 -39.416911 -21.836103 46.512127 -29.023133 -7.192264 11.501883 9.640099 -40.275188 -10.920841 -8.652488 -4.443405 -15.831112 -40.396924 0.821932 -50.329202 -16.761984 18.053023 -28.784128 4.231409 24.296676 4.276583 -29.622166 -2.384590 8.893277 77.962019 12.734144 3.488415 -5.908076 0.474769 0.052649 0.359183 0.025214 -9.213265 -32.991155 -6.955485 43.624904 78.313916 39.005502 -21.901046 -9.929177 1.229874 -0.500503 -0.706658 -0.197049
-32.271252 58.201594 92.038331 -177.431392 -41.021464 -3.290033 -1.864809 25.314891 2.354481 -0.329437 4.116399 0.345778 -0.514937 6.570506 0.541552 -1.471199 21.005872 1.570596 0.612554 13.721957 -2.084985 2.012898 -10.191936 -4.210839 5.283244 -2.205292 -2.184055 26.737814 -39.372766 -21.693883 46.686163 -29.096569 -7.431547 11.508392 9.653072 -40.274777 -10.943987 -8.667089 -4.433426 -15.873937 -40.374221 0.830693 -50.290118 -16.788235 18.097678 -28.750020 4.243829 24.421515 4.125752 -29.703693 -2.324219 9.126975 77.951260 12.869014 3.462445 -5.931013 0.453165 0.051495 0.368278 0.023890 -9.207894 -33.070762 -6.935886 43.604509 78.319930 38.991950 -21.926552 -9.935173 1.249591 -0.497919 -0.712323 -0.195936
-32.264489 58.214684 92.014773 -177.452498 -40.935239 -3.298091 -1.812889 25.324412 2.394407 -0.326711 4.112540 0.347093 -0.524954 6.522404 0.544092 -1.444122 21.040874 1.577351 0.590603 13.671546 -2.086312 2.009769 -10.284491 -4.248463 5.286312 -2.193626 -2.163881 26.628351 -39.344340 -21.608531 46.793889 -29.130869 -7.631943 11.510710 9.669590 -40.280830 -10.977233 -8.674599 -4.418332 -15.934719 -40.379012 0.850969 -50.225536 -16.754907 18.080435 -28.759038 4.227682 24.579900 4.099649 -29.771732 -2.293806 9.293178 77.944348 13.029682 3.438862 -5.944009 0.431842 0.044057 0.365972 0.021804 -9.196920 -33.133868 -6.888832 43.592717 78.360267 38.962627 -21.892655 -9.955408 1.308154 -0.535323 -0.724602 -0.217172
